<svg id="visual" viewBox="0 0 900 600" width="900" height="600" xmlns="http://www.w3.org/2000/svg" xmlns:xlink="http://www.w3.org/1999/xlink" version="1.1"><rect x="0" y="0" width="900" height="600" fill="#529ffc"></rect><defs><linearGradient id="grad1_0" x1="33.3%" y1="100%" x2="100%" y2="0%"><stop offset="20%" stop-color="#529ffc" stop-opacity="1"></stop><stop offset="80%" stop-color="#529ffc" stop-opacity="1"></stop></linearGradient></defs><defs><linearGradient id="grad2_0" x1="0%" y1="100%" x2="66.7%" y2="0%"><stop offset="20%" stop-color="#529ffc" stop-opacity="1"></stop><stop offset="80%" stop-color="#529ffc" stop-opacity="1"></stop></linearGradient></defs><g transform="translate(900, 600)"><path d="M-486.7 0C-456 -21 -425.2 -42 -420.8 -66.6C-416.3 -91.3 -438.3 -119.5 -433.7 -140.9C-429.1 -162.3 -397.9 -176.8 -375.1 -191.1C-352.4 -205.5 -338 -219.7 -324.4 -235.7C-310.8 -251.7 -297.9 -269.3 -282.8 -282.8C-267.8 -296.3 -250.6 -305.7 -242.8 -334.1C-234.9 -362.6 -236.5 -410.2 -221 -433.7C-205.4 -457.2 -172.7 -456.4 -142.8 -439.4C-112.8 -422.3 -85.7 -388.9 -62.4 -394.1C-39.1 -399.3 -19.5 -443 0 -486.7L0 0Z" fill="#98b0ee"></path></g><g transform="translate(0, 0)"><path d="M486.7 0C470 24.4 453.3 48.8 435.6 69C417.8 89.2 399.1 105.3 395.6 128.6C392.2 151.8 404 182.2 392.9 200.2C381.9 218.2 348 223.7 330.1 239.8C312.2 256 310.4 282.8 294.2 294.2C277.9 305.5 247.3 301.4 234.5 322.8C221.7 344.2 226.7 391.2 216.1 424.1C205.5 457 179.4 475.9 150.4 462.9C121.4 450 89.5 405.3 64 404C38.4 402.6 19.2 444.7 0 486.7L0 0Z" fill="#98b0ee"></path></g></svg>