<svg id="visual" viewBox="0 0 900 600" width="900" height="600" xmlns="http://www.w3.org/2000/svg" xmlns:xlink="http://www.w3.org/1999/xlink" version="1.1"><g stroke-width="1" stroke-linejoin="bevel"><path d="M463 308L435 203L417 310Z" fill="#87b2e0" stroke="#87b2e0"></path><path d="M463 308L500 170L435 203Z" fill="#76c3d2" stroke="#76c3d2"></path><path d="M463 308L567 263L500 170Z" fill="#9ea6dc" stroke="#9ea6dc"></path><path d="M500 170L430 110L435 203Z" fill="#78bcdc" stroke="#78bcdc"></path><path d="M435 203L281 233L417 310Z" fill="#aaa0d7" stroke="#aaa0d7"></path><path d="M335 102L281 233L435 203Z" fill="#76c3d2" stroke="#76c3d2"></path><path d="M567 263L598 227L500 170Z" fill="#7eb7df" stroke="#7eb7df"></path><path d="M500 170L539 122L430 110Z" fill="#87b2e0" stroke="#87b2e0"></path><path d="M390 427L471 420L417 310Z" fill="#aaa0d7" stroke="#aaa0d7"></path><path d="M417 310L471 420L463 308Z" fill="#9ea6dc" stroke="#9ea6dc"></path><path d="M463 308L592 396L567 263Z" fill="#7bc6cc" stroke="#7bc6cc"></path><path d="M712 301L703 238L598 227Z" fill="#87b2e0" stroke="#87b2e0"></path><path d="M598 227L539 122L500 170Z" fill="#75c0d8" stroke="#75c0d8"></path><path d="M281 233L285 337L417 310Z" fill="#75c0d8" stroke="#75c0d8"></path><path d="M285 337L390 427L417 310Z" fill="#c193c5" stroke="#c193c5"></path><path d="M430 110L335 102L435 203Z" fill="#aaa0d7" stroke="#aaa0d7"></path><path d="M471 420L592 396L463 308Z" fill="#78bcdc" stroke="#78bcdc"></path><path d="M598 227L613 137L539 122Z" fill="#9ea6dc" stroke="#9ea6dc"></path><path d="M703 238L613 137L598 227Z" fill="#c193c5" stroke="#c193c5"></path><path d="M335 102L223 206L281 233Z" fill="#c193c5" stroke="#c193c5"></path><path d="M281 233L174 305L285 337Z" fill="#aaa0d7" stroke="#aaa0d7"></path><path d="M320 505L407 498L390 427Z" fill="#76c3d2" stroke="#76c3d2"></path><path d="M390 427L407 498L471 420Z" fill="#aaa0d7" stroke="#aaa0d7"></path><path d="M471 420L460 499L592 396Z" fill="#7eb7df" stroke="#7eb7df"></path><path d="M407 498L460 499L471 420Z" fill="#78bcdc" stroke="#78bcdc"></path><path d="M285 337L261 427L390 427Z" fill="#7eb7df" stroke="#7eb7df"></path><path d="M199 383L261 427L285 337Z" fill="#78bcdc" stroke="#78bcdc"></path><path d="M530 0L421 0L430 110Z" fill="#75c0d8" stroke="#75c0d8"></path><path d="M430 110L421 0L335 102Z" fill="#7eb7df" stroke="#7eb7df"></path><path d="M335 102L174 91L223 206Z" fill="#7bc6cc" stroke="#7bc6cc"></path><path d="M530 0L430 110L539 122Z" fill="#aaa0d7" stroke="#aaa0d7"></path><path d="M712 301L598 227L567 263Z" fill="#78bcdc" stroke="#78bcdc"></path><path d="M223 206L174 305L281 233Z" fill="#76c3d2" stroke="#76c3d2"></path><path d="M174 305L199 383L285 337Z" fill="#c193c5" stroke="#c193c5"></path><path d="M189 460L320 505L261 427Z" fill="#87b2e0" stroke="#87b2e0"></path><path d="M261 427L320 505L390 427Z" fill="#78bcdc" stroke="#78bcdc"></path><path d="M407 498L417 600L460 499Z" fill="#75c0d8" stroke="#75c0d8"></path><path d="M634 0L530 0L539 122Z" fill="#aaa0d7" stroke="#aaa0d7"></path><path d="M634 0L539 122L613 137Z" fill="#aaa0d7" stroke="#aaa0d7"></path><path d="M592 396L712 301L567 263Z" fill="#92acdf" stroke="#92acdf"></path><path d="M421 0L335 0L335 102Z" fill="#b699cf" stroke="#b699cf"></path><path d="M460 499L639 490L592 396Z" fill="#76c3d2" stroke="#76c3d2"></path><path d="M592 396L729 364L712 301Z" fill="#c193c5" stroke="#c193c5"></path><path d="M174 305L133 295L199 383Z" fill="#75c0d8" stroke="#75c0d8"></path><path d="M110 227L133 295L174 305Z" fill="#92acdf" stroke="#92acdf"></path><path d="M110 227L174 305L223 206Z" fill="#b699cf" stroke="#b699cf"></path><path d="M796 229L720 137L703 238Z" fill="#78bcdc" stroke="#78bcdc"></path><path d="M703 238L720 137L613 137Z" fill="#9ea6dc" stroke="#9ea6dc"></path><path d="M639 490L729 364L592 396Z" fill="#b699cf" stroke="#b699cf"></path><path d="M712 301L796 229L703 238Z" fill="#92acdf" stroke="#92acdf"></path><path d="M225 0L174 91L335 102Z" fill="#c193c5" stroke="#c193c5"></path><path d="M199 383L189 460L261 427Z" fill="#78bcdc" stroke="#78bcdc"></path><path d="M123 481L189 460L199 383Z" fill="#b699cf" stroke="#b699cf"></path><path d="M684 0L634 0L613 137Z" fill="#76c3d2" stroke="#76c3d2"></path><path d="M174 91L110 227L223 206Z" fill="#c193c5" stroke="#c193c5"></path><path d="M335 0L225 0L335 102Z" fill="#75c0d8" stroke="#75c0d8"></path><path d="M320 505L417 600L407 498Z" fill="#87b2e0" stroke="#87b2e0"></path><path d="M460 499L606 600L639 490Z" fill="#87b2e0" stroke="#87b2e0"></path><path d="M260 600L417 600L320 505Z" fill="#87b2e0" stroke="#87b2e0"></path><path d="M417 600L463 600L460 499Z" fill="#78bcdc" stroke="#78bcdc"></path><path d="M606 600L690 508L639 490Z" fill="#92acdf" stroke="#92acdf"></path><path d="M639 490L690 508L729 364Z" fill="#c193c5" stroke="#c193c5"></path><path d="M720 137L684 0L613 137Z" fill="#92acdf" stroke="#92acdf"></path><path d="M830 288L712 301L729 364Z" fill="#aaa0d7" stroke="#aaa0d7"></path><path d="M830 288L796 229L712 301Z" fill="#87b2e0" stroke="#87b2e0"></path><path d="M720 137L816 0L684 0Z" fill="#aaa0d7" stroke="#aaa0d7"></path><path d="M463 600L606 600L460 499Z" fill="#87b2e0" stroke="#87b2e0"></path><path d="M189 460L260 600L320 505Z" fill="#7eb7df" stroke="#7eb7df"></path><path d="M61 420L199 383L133 295Z" fill="#c193c5" stroke="#c193c5"></path><path d="M61 420L123 481L199 383Z" fill="#78bcdc" stroke="#78bcdc"></path><path d="M189 460L184 600L260 600Z" fill="#c193c5" stroke="#c193c5"></path><path d="M174 91L68 135L110 227Z" fill="#b699cf" stroke="#b699cf"></path><path d="M0 287L61 420L133 295Z" fill="#76c3d2" stroke="#76c3d2"></path><path d="M63 0L68 135L174 91Z" fill="#9ea6dc" stroke="#9ea6dc"></path><path d="M832 382L830 288L729 364Z" fill="#7eb7df" stroke="#7eb7df"></path><path d="M796 229L836 135L720 137Z" fill="#7eb7df" stroke="#7eb7df"></path><path d="M687 600L767 488L690 508Z" fill="#78bcdc" stroke="#78bcdc"></path><path d="M690 508L767 488L729 364Z" fill="#9ea6dc" stroke="#9ea6dc"></path><path d="M0 287L133 295L110 227Z" fill="#78bcdc" stroke="#78bcdc"></path><path d="M767 488L832 382L729 364Z" fill="#87b2e0" stroke="#87b2e0"></path><path d="M900 260L796 229L830 288Z" fill="#b699cf" stroke="#b699cf"></path><path d="M900 184L836 135L796 229Z" fill="#75c0d8" stroke="#75c0d8"></path><path d="M606 600L687 600L690 508Z" fill="#7eb7df" stroke="#7eb7df"></path><path d="M78 600L184 600L123 481Z" fill="#7eb7df" stroke="#7eb7df"></path><path d="M123 481L184 600L189 460Z" fill="#87b2e0" stroke="#87b2e0"></path><path d="M68 135L0 236L110 227Z" fill="#aaa0d7" stroke="#aaa0d7"></path><path d="M0 236L0 287L110 227Z" fill="#76c3d2" stroke="#76c3d2"></path><path d="M68 135L0 99L0 236Z" fill="#78bcdc" stroke="#78bcdc"></path><path d="M225 0L63 0L174 91Z" fill="#87b2e0" stroke="#87b2e0"></path><path d="M836 135L816 0L720 137Z" fill="#78bcdc" stroke="#78bcdc"></path><path d="M900 392L900 260L830 288Z" fill="#b699cf" stroke="#b699cf"></path><path d="M836 135L900 69L816 0Z" fill="#76c3d2" stroke="#76c3d2"></path><path d="M63 0L0 99L68 135Z" fill="#9ea6dc" stroke="#9ea6dc"></path><path d="M900 260L900 184L796 229Z" fill="#7eb7df" stroke="#7eb7df"></path><path d="M0 287L0 434L61 420Z" fill="#aaa0d7" stroke="#aaa0d7"></path><path d="M61 420L0 530L123 481Z" fill="#7bc6cc" stroke="#7bc6cc"></path><path d="M900 474L900 392L832 382Z" fill="#78bcdc" stroke="#78bcdc"></path><path d="M832 382L900 392L830 288Z" fill="#b699cf" stroke="#b699cf"></path><path d="M900 474L832 382L767 488Z" fill="#b699cf" stroke="#b699cf"></path><path d="M0 530L78 600L123 481Z" fill="#b699cf" stroke="#b699cf"></path><path d="M900 184L900 69L836 135Z" fill="#9ea6dc" stroke="#9ea6dc"></path><path d="M687 600L809 600L767 488Z" fill="#76c3d2" stroke="#76c3d2"></path><path d="M63 0L0 0L0 99Z" fill="#aaa0d7" stroke="#aaa0d7"></path><path d="M809 600L900 474L767 488Z" fill="#b699cf" stroke="#b699cf"></path><path d="M0 434L0 530L61 420Z" fill="#75c0d8" stroke="#75c0d8"></path><path d="M900 69L900 0L816 0Z" fill="#7eb7df" stroke="#7eb7df"></path><path d="M0 530L0 600L78 600Z" fill="#aaa0d7" stroke="#aaa0d7"></path><path d="M809 600L900 600L900 474Z" fill="#78bcdc" stroke="#78bcdc"></path></g></svg>