<svg id="visual" viewBox="0 0 900 600" width="900" height="600" xmlns="http://www.w3.org/2000/svg" xmlns:xlink="http://www.w3.org/1999/xlink" version="1.1"><rect x="0" y="0" width="900" height="600" fill="#FFFFFF"></rect><g transform="translate(453.6518238747698 290.17255546797145)"><path d="M72 -86.1C89.5 -71.1 97.5 -44.8 102.9 -17.6C108.4 9.6 111.3 37.8 102.3 64.4C93.3 91 72.3 116 47.4 121.1C22.5 126.2 -6.4 111.5 -33.8 98.9C-61.3 86.4 -87.4 75.9 -101.9 56.2C-116.3 36.5 -119.2 7.5 -110.4 -15.4C-101.5 -38.3 -80.9 -55.1 -60.5 -69.6C-40.2 -84.2 -20.1 -96.6 3.6 -100.9C27.2 -105.1 54.4 -101.2 72 -86.1" fill="#2980B9"></path></g></svg>