<svg xmlns="http://www.w3.org/2000/svg" version="1.1" xmlns:xlink="http://www.w3.org/1999/xlink" xmlns:svgjs="http://svgjs.dev/svgjs" viewBox="0 0 325 100"><defs><linearGradient x1="50%" y1="0%" x2="50%" y2="100%" id="ssspill-grad"><stop stop-color="#84aaf1" stop-opacity="1" offset="45%"></stop><stop stop-color="hsl(270, 73%, 53%)" stop-opacity="1" offset="100%"></stop></linearGradient></defs><rect width="100%" height="100%" fill="#529ffc"></rect><g fill="url(#ssspill-grad)">
    <rect width="100%" height="40" fill="#84aaf1"></rect>

    <rect x="0" width="7.69%" height="57.94615733915032" rx="15"></rect>
      <rect x="50" width="7.69%" height="75.2334027678833" rx="15"></rect>
      <rect x="100" width="7.69%" height="55.7545493706343" rx="15"></rect>
      <rect x="150" width="7.69%" height="96.61458376454442" rx="15"></rect>
      <rect x="200" width="7.69%" height="63.926039933732895" rx="15"></rect>
      <rect x="250" width="7.69%" height="55.26968744054398" rx="15"></rect>
      <rect x="300" width="7.69%" height="91.16527644006558" rx="15"></rect>
  </g><g fill="#529ffc">
    <rect x="25" y="16.616632235189517" width="7.69%" height="60" rx="15"></rect>
      <rect x="75" y="22.731681510197735" width="7.69%" height="60" rx="15"></rect>
      <rect x="125" y="18.649543909925256" width="7.69%" height="60" rx="15"></rect>
      <rect x="175" y="17.168028621840527" width="7.69%" height="60" rx="15"></rect>
      <rect x="225" y="23.805554881035505" width="7.69%" height="60" rx="15"></rect>
      <rect x="275" y="26.856430087576516" width="7.69%" height="60" rx="15"></rect>
  </g></svg>