<svg id="visual" viewBox="0 0 900 600" width="900" height="600" xmlns="http://www.w3.org/2000/svg" xmlns:xlink="http://www.w3.org/1999/xlink" version="1.1"><rect x="0" y="0" width="900" height="600" fill="#529ffc"></rect><path d="M0 144L21.5 145C43 146 86 148 128.8 143.5C171.7 139 214.3 128 257.2 125.7C300 123.3 343 129.7 385.8 131.2C428.7 132.7 471.3 129.3 514.2 131.2C557 133 600 140 642.8 139.3C685.7 138.7 728.3 130.3 771.2 127.3C814 124.3 857 126.7 878.5 127.8L900 129L900 0L878.5 0C857 0 814 0 771.2 0C728.3 0 685.7 0 642.8 0C600 0 557 0 514.2 0C471.3 0 428.7 0 385.8 0C343 0 300 0 257.2 0C214.3 0 171.7 0 128.8 0C86 0 43 0 21.5 0L0 0Z" fill="#c193c5"></path><path d="M0 108L21.5 108.2C43 108.3 86 108.7 128.8 109.7C171.7 110.7 214.3 112.3 257.2 111.7C300 111 343 108 385.8 111.5C428.7 115 471.3 125 514.2 127.3C557 129.7 600 124.3 642.8 119C685.7 113.7 728.3 108.3 771.2 108.8C814 109.3 857 115.7 878.5 118.8L900 122L900 0L878.5 0C857 0 814 0 771.2 0C728.3 0 685.7 0 642.8 0C600 0 557 0 514.2 0C471.3 0 428.7 0 385.8 0C343 0 300 0 257.2 0C214.3 0 171.7 0 128.8 0C86 0 43 0 21.5 0L0 0Z" fill="#af9ed4"></path><path d="M0 92L21.5 91.5C43 91 86 90 128.8 93C171.7 96 214.3 103 257.2 103.2C300 103.3 343 96.7 385.8 94.5C428.7 92.3 471.3 94.7 514.2 95.8C557 97 600 97 642.8 97.8C685.7 98.7 728.3 100.3 771.2 102.2C814 104 857 106 878.5 107L900 108L900 0L878.5 0C857 0 814 0 771.2 0C728.3 0 685.7 0 642.8 0C600 0 557 0 514.2 0C471.3 0 428.7 0 385.8 0C343 0 300 0 257.2 0C214.3 0 171.7 0 128.8 0C86 0 43 0 21.5 0L0 0Z" fill="#9aa8dd"></path><path d="M0 89L21.5 87.7C43 86.3 86 83.7 128.8 81.7C171.7 79.7 214.3 78.3 257.2 77.5C300 76.7 343 76.3 385.8 79.2C428.7 82 471.3 88 514.2 88.7C557 89.3 600 84.7 642.8 82.3C685.7 80 728.3 80 771.2 80.5C814 81 857 82 878.5 82.5L900 83L900 0L878.5 0C857 0 814 0 771.2 0C728.3 0 685.7 0 642.8 0C600 0 557 0 514.2 0C471.3 0 428.7 0 385.8 0C343 0 300 0 257.2 0C214.3 0 171.7 0 128.8 0C86 0 43 0 21.5 0L0 0Z" fill="#87b2e0"></path><path d="M0 75L21.5 72.8C43 70.7 86 66.3 128.8 66.3C171.7 66.3 214.3 70.7 257.2 71.3C300 72 343 69 385.8 68.7C428.7 68.3 471.3 70.7 514.2 71.7C557 72.7 600 72.3 642.8 69.3C685.7 66.3 728.3 60.7 771.2 60.2C814 59.7 857 64.3 878.5 66.7L900 69L900 0L878.5 0C857 0 814 0 771.2 0C728.3 0 685.7 0 642.8 0C600 0 557 0 514.2 0C471.3 0 428.7 0 385.8 0C343 0 300 0 257.2 0C214.3 0 171.7 0 128.8 0C86 0 43 0 21.5 0L0 0Z" fill="#7abadd"></path><path d="M0 45L21.5 45.2C43 45.3 86 45.7 128.8 45.3C171.7 45 214.3 44 257.2 45.3C300 46.7 343 50.3 385.8 51.2C428.7 52 471.3 50 514.2 48.7C557 47.3 600 46.7 642.8 47.8C685.7 49 728.3 52 771.2 52.8C814 53.7 857 52.3 878.5 51.7L900 51L900 0L878.5 0C857 0 814 0 771.2 0C728.3 0 685.7 0 642.8 0C600 0 557 0 514.2 0C471.3 0 428.7 0 385.8 0C343 0 300 0 257.2 0C214.3 0 171.7 0 128.8 0C86 0 43 0 21.5 0L0 0Z" fill="#75c1d6"></path><path d="M0 34L21.5 32.8C43 31.7 86 29.3 128.8 28C171.7 26.7 214.3 26.3 257.2 27.5C300 28.7 343 31.3 385.8 31C428.7 30.7 471.3 27.3 514.2 25.7C557 24 600 24 642.8 24.7C685.7 25.3 728.3 26.7 771.2 27.2C814 27.7 857 27.3 878.5 27.2L900 27L900 0L878.5 0C857 0 814 0 771.2 0C728.3 0 685.7 0 642.8 0C600 0 557 0 514.2 0C471.3 0 428.7 0 385.8 0C343 0 300 0 257.2 0C214.3 0 171.7 0 128.8 0C86 0 43 0 21.5 0L0 0Z" fill="#7bc6cc"></path></svg>