<svg id="visual" viewBox="0 0 900 600" width="900" height="600" xmlns="http://www.w3.org/2000/svg" xmlns:xlink="http://www.w3.org/1999/xlink" version="1.1"><rect x="0" y="0" width="900" height="600" fill="#FFFFFF"></rect><g transform="translate(-41.15211617086763 683.9030811930286)"><path d="M211.5 -358.9C284.7 -324.1 361.9 -288.8 414.1 -228.9C466.4 -169 493.7 -84.5 453 -23.5C412.3 37.5 303.6 75 248.4 129.9C193.2 184.7 191.6 256.9 159.1 290.6C126.7 324.4 63.3 319.7 12.5 298C-38.3 276.4 -76.7 237.8 -125.6 213.5C-174.5 189.3 -234.1 179.4 -284.1 146.2C-334.1 113 -374.5 56.5 -386.4 -6.8C-398.2 -70.2 -381.4 -140.3 -362.2 -226.9C-343.1 -313.5 -321.5 -416.6 -260.8 -458.5C-200 -500.4 -100 -481.2 -15.4 -454.5C69.2 -427.8 138.3 -393.6 211.5 -358.9" fill="#7BC6CC"></path></g></svg>