<svg id="visual" viewBox="0 0 900 600" width="900" height="600" xmlns="http://www.w3.org/2000/svg" xmlns:xlink="http://www.w3.org/1999/xlink" version="1.1"><rect x="0" y="0" width="900" height="600" fill="#aebacd"></rect><path d="M0 379L21.5 386C43 393 86 407 128.8 426.7C171.7 446.3 214.3 471.7 257.2 465.5C300 459.3 343 421.7 385.8 426C428.7 430.3 471.3 476.7 514.2 495C557 513.3 600 503.7 642.8 481.3C685.7 459 728.3 424 771.2 422.7C814 421.3 857 453.7 878.5 469.8L900 486L900 601L878.5 601C857 601 814 601 771.2 601C728.3 601 685.7 601 642.8 601C600 601 557 601 514.2 601C471.3 601 428.7 601 385.8 601C343 601 300 601 257.2 601C214.3 601 171.7 601 128.8 601C86 601 43 601 21.5 601L0 601Z" fill="#001122" stroke-linecap="round" stroke-linejoin="miter"></path></svg>