<svg xmlns="http://www.w3.org/2000/svg" version="1.1" xmlns:xlink="http://www.w3.org/1999/xlink" xmlns:svgjs="http://svgjs.dev/svgjs" viewBox="0 0 800 800"><defs><radialGradient id="ccclaymoji-grad-dark" r="93%" cx="20%" cy="20%">
      <stop offset="70%" stop-color="hsl(115, 100%, 84%)" stop-opacity="0"></stop>
      <stop offset="97%" stop-color="#82cb7d" stop-opacity="1"></stop>
    </radialGradient><radialGradient id="ccclaymoji-grad-light" r="65%" cx="28%" cy="20%">
    <stop offset="0%" stop-color="#e8ffdf" stop-opacity="0.75"></stop>
    <stop offset="100%" stop-color="hsl(115, 100%, 84%)" stop-opacity="0"></stop>
  </radialGradient><filter id="ccclaymoji-blur" x="-100%" y="-100%" width="400%" height="400%" filterUnits="objectBoundingBox" primitiveUnits="userSpaceOnUse" color-interpolation-filters="sRGB">
	<feGaussianBlur stdDeviation="30" x="0%" y="0%" width="100%" height="100%" in="SourceGraphic" edgeMode="none" result="blur"></feGaussianBlur></filter><filter id="inner-blur" x="-100%" y="-100%" width="400%" height="400%" filterUnits="objectBoundingBox" primitiveUnits="userSpaceOnUse" color-interpolation-filters="sRGB">
	<feGaussianBlur stdDeviation="2" x="0%" y="0%" width="100%" height="100%" in="SourceGraphic" edgeMode="none" result="blur"></feGaussianBlur></filter><filter id="eye-shadow" x="-100%" y="-100%" width="400%" height="400%" filterUnits="objectBoundingBox" primitiveUnits="userSpaceOnUse" color-interpolation-filters="sRGB">
	<feDropShadow stdDeviation="10" dx="10" dy="10" flood-color="#000000" flood-opacity="0.2" x="0%" y="0%" width="100%" height="100%" result="dropShadow"></feDropShadow>
</filter><linearGradient gradientTransform="rotate(-25)" id="eye-light" x1="50%" y1="0%" x2="50%" y2="100%">
      <stop offset="20%" stop-color="#555555" stop-opacity="1"></stop>
      <stop offset="100%" stop-color="black" stop-opacity="0"></stop>
    </linearGradient><linearGradient id="mouth-light" x1="50%" y1="0%" x2="50%" y2="100%">
    <stop offset="0%" stop-color="#555555" stop-opacity="1"></stop>
    <stop offset="100%" stop-color="hsla(0, 0%, 0%, 1)" stop-opacity="0"></stop>
  </linearGradient><filter id="mouth-shadow" x="-100%" y="-100%" width="400%" height="400%" filterUnits="objectBoundingBox" primitiveUnits="userSpaceOnUse" color-interpolation-filters="sRGB">
	<feDropShadow stdDeviation="10" dx="10" dy="10" flood-color="#000000" flood-opacity="0.2" x="0%" y="0%" width="100%" height="100%" result="dropShadow"></feDropShadow>
</filter></defs><g stroke-linecap="round"><path d="M622.5 450.0000011707511C622.5 579.1695024495235 529.1695012787724 683.881075339549 400 683.881075339549C270.83106777493606 683.881075339549 177.5 579.1695024495235 177.5 450.0000011707511C177.5 320.83106894568715 270.83106777493606 216.11892700195312 400 216.11892700195312C529.1695012787724 216.11892700195312 622.5 320.83106894568715 622.5 450.0000011707511Z " fill="#82cb7d" opacity="0.25" filter="url(#ccclaymoji-blur)"></path><circle r="222.5" cx="400" cy="400" fill="hsl(115, 100%, 84%)"></circle><circle r="222.5" cx="400" cy="400" fill="url(#ccclaymoji-grad-dark)"></circle><circle r="222.5" cx="400" cy="400" fill="url(#ccclaymoji-grad-light)"></circle><ellipse rx="23.5" ry="25" cx="350" cy="375" fill="black" filter="url(#eye-shadow)"></ellipse><ellipse rx="23.5" ry="25" cx="350" cy="375" fill="url(#eye-light)" filter="url(#inner-blur)"></ellipse><ellipse rx="23.5" ry="25" cx="450" cy="375" fill="black" filter="url(#eye-shadow)"></ellipse><ellipse rx="23.5" ry="25" cx="450" cy="375" fill="url(#eye-light)" filter="url(#inner-blur)"></ellipse><path d="M369 511.5Q419 561.5 469 511.5 " stroke-width="5" stroke="hsla(0, 0%, 0%, 1)" fill="none" filter="url(#mouth-shadow)" transform="rotate(61, 400, 400)"></path><path d="M369 511.5Q419 561.5 469 511.5 " stroke-width="1.6666666666666667" stroke="url(#mouth-light)" fill="none" filter="url(#inner-blur)" transform="rotate(61, 400, 400)"></path></g></svg>